<?xml version="1.0" encoding="UTF-8"?>
<svg xmlns="http://www.w3.org/2000/svg" xmlns:xlink="http://www.w3.org/1999/xlink" width="64px" height="64px" viewBox="0 0 64 64" version="1.1">
<defs>
<linearGradient id="linear0" gradientUnits="userSpaceOnUse" x1="62" y1="126" x2="62" y2="2" gradientTransform="matrix(0.516129,0,0,-0.516129,0,65.032258)">
<stop offset="0" style="stop-color:rgb(99.607843%,60.392159%,29.803923%);stop-opacity:1;"/>
<stop offset="1" style="stop-color:rgb(76.078433%,36.862746%,7.843138%);stop-opacity:1;"/>
</linearGradient>
<linearGradient id="linear1" gradientUnits="userSpaceOnUse" x1="62" y1="0" x2="62" y2="124" gradientTransform="matrix(0.516129,0,0,0.516129,0,0)">
<stop offset="0" style="stop-color:rgb(98.823529%,76.47059%,59.215689%);stop-opacity:1;"/>
<stop offset="1" style="stop-color:rgb(98.823529%,76.47059%,59.215689%);stop-opacity:0;"/>
</linearGradient>
</defs>
<g id="surface1">
<path style=" stroke:none;fill-rule:nonzero;fill:url(#linear0);" d="M 64 32 C 64 49.671875 49.671875 64 32 64 C 14.328125 64 0 49.671875 0 32 C 0 14.328125 14.328125 0 32 0 C 49.671875 0 64 14.328125 64 32 Z M 64 32 "/>
<path style=" stroke:none;fill-rule:nonzero;fill:url(#linear1);" d="M 32 1.03125 C 49.074219 1.03125 62.96875 14.925781 62.96875 32 C 62.96875 49.074219 49.074219 62.96875 32 62.96875 C 14.925781 62.96875 1.03125 49.074219 1.03125 32 C 1.03125 14.925781 14.925781 1.03125 32 1.03125 M 32 0 C 14.328125 0 0 14.328125 0 32 C 0 49.671875 14.328125 64 32 64 C 49.671875 64 64 49.671875 64 32 C 64 14.328125 49.671875 0 32 0 Z M 32 0 "/>
<path style=" stroke:none;fill-rule:nonzero;fill:rgb(6.666667%,6.666667%,6.666667%);fill-opacity:1;" d="M 12.546875 18.792969 C 6.988281 26.746094 6.953125 37.386719 12.433594 45.378906 L 9.890625 47.921875 C 3.070312 38.492188 3.113281 25.640625 10.007812 16.253906 Z M 12.546875 18.792969 "/>
<path style=" stroke:none;fill-rule:nonzero;fill:rgb(6.666667%,6.666667%,6.666667%);fill-opacity:1;" d="M 47.660156 53.90625 C 38.265625 60.800781 25.417969 60.839844 15.988281 54.023438 L 18.535156 51.480469 C 26.527344 56.960938 37.167969 56.925781 45.125 51.363281 L 47.664062 53.90625 Z M 47.660156 53.90625 "/>
<path style=" stroke:none;fill-rule:nonzero;fill:rgb(6.666667%,6.666667%,6.666667%);fill-opacity:1;" d="M 44.953125 12.863281 C 37.074219 7.453125 26.617188 7.417969 18.699219 12.75 L 16.15625 10.203125 C 25.515625 3.539062 38.179688 3.578125 47.503906 10.316406 L 44.960938 12.863281 Z M 44.953125 12.863281 "/>
<path style=" stroke:none;fill-rule:nonzero;fill:rgb(6.666667%,6.666667%,6.666667%);fill-opacity:1;" d="M 53.59375 16.414062 C 60.335938 25.734375 60.371094 38.398438 53.707031 47.761719 L 51.164062 45.21875 C 56.496094 37.300781 56.460938 26.84375 51.050781 18.957031 Z M 53.59375 16.414062 "/>
<path style=" stroke:none;fill-rule:nonzero;fill:rgb(6.666667%,6.666667%,6.666667%);fill-opacity:1;" d="M 38.007812 30.871094 C 36.886719 30.324219 35.464844 30.042969 33.78125 30.042969 L 29.082031 30.042969 C 27.898438 30.042969 26.953125 29.714844 26.285156 29.078125 L 26.253906 29.046875 C 25.601562 28.351562 25.285156 27.5625 25.285156 26.644531 C 25.285156 25.722656 25.609375 24.878906 26.253906 24.191406 C 26.90625 23.496094 27.789062 23.148438 28.886719 23.148438 L 40.664062 23.148438 L 40.664062 20.128906 L 34.066406 20.128906 L 34.066406 15.484375 C 34.066406 15.484375 29.933594 15.484375 29.933594 15.484375 L 29.933594 20.128906 L 28.453125 20.128906 C 27.113281 20.128906 25.949219 20.445312 24.917969 21.089844 C 23.886719 21.703125 23.101562 22.492188 22.523438 23.507812 C 21.945312 24.519531 21.667969 25.59375 21.667969 26.792969 C 21.667969 28.195312 21.964844 29.382812 22.558594 30.347656 C 23.195312 31.324219 24.03125 32.046875 25.136719 32.578125 C 26.253906 33.0625 27.582031 33.3125 29.078125 33.3125 L 34.011719 33.3125 C 34.800781 33.3125 35.5 33.492188 36.097656 33.859375 C 36.691406 34.183594 37.140625 34.644531 37.433594 35.230469 C 37.722656 35.785156 37.859375 36.347656 37.859375 37.007812 C 37.859375 37.667969 37.699219 38.332031 37.378906 38.9375 C 37.0625 39.546875 36.574219 40.058594 35.9375 40.449219 C 35.339844 40.804688 34.613281 40.984375 33.777344 40.984375 L 22.429688 40.984375 C 22.429688 40.984375 22.429688 44 22.429688 44 L 29.925781 44 C 29.925781 44 29.925781 48.691406 29.925781 48.691406 L 34.054688 48.691406 L 34.054688 44 C 34.054688 44 34.300781 44 34.300781 44 C 35.738281 44 36.960938 43.667969 38.023438 42.992188 C 39.121094 42.3125 39.957031 41.464844 40.566406 40.382812 C 41.175781 39.273438 41.476562 38.117188 41.476562 36.851562 C 41.476562 35.386719 41.171875 34.132812 40.574219 33.136719 C 40.003906 32.140625 39.164062 31.394531 38.003906 30.871094 Z M 38.007812 30.871094 "/>
</g>
</svg>
